HIERARCHY
ROOT Hips
{
	OFFSET -0.001795 -0.223333 0.028219
	CHANNELS 6 Xposition Yposition Zposition Zrotation Yrotation Xrotation 
	JOINT LeftUpLeg
	{
		OFFSET 0.069520 -0.091406 -0.006815
		CHANNELS 3 Zrotation Yrotation Xrotation
		JOINT LeftLeg
		{
			OFFSET 0.034277 -0.375199 -0.004496
			CHANNELS 3 Zrotation Yrotation Xrotation
			JOINT LeftFoot
			{
				OFFSET -0.013596 -0.397961 -0.043693
				CHANNELS 3 Zrotation Yrotation Xrotation
				JOINT LeftToe
				{
					OFFSET 0.026358 -0.055791 0.119288
					CHANNELS 3 Zrotation Yrotation Xrotation
					End Site
					{
						OFFSET 0.000000 0.000000 0.000000
					}
				}
			}
		}
	}
	JOINT RightUpLeg
	{
		OFFSET -0.067670 -0.090522 -0.004320
		CHANNELS 3 Zrotation Yrotation Xrotation
		JOINT RightLeg
		{
			OFFSET -0.038290 -0.382569 -0.008850
			CHANNELS 3 Zrotation Yrotation Xrotation
			JOINT RightFoot
			{
				OFFSET 0.015774 -0.398415 -0.042312
				CHANNELS 3 Zrotation Yrotation Xrotation
				JOINT RightToe
				{
					OFFSET -0.025372 -0.048144 0.123348
					CHANNELS 3 Zrotation Yrotation Xrotation
					End Site
					{
						OFFSET 0.000000 0.000000 0.000000
					}
				}
			}
		}
	}
	JOINT Spine
	{
		OFFSET -0.002533 0.108963 -0.026696
		CHANNELS 3 Zrotation Yrotation Xrotation
		JOINT Spine1
		{
			OFFSET 0.005487 0.135180 0.001092
			CHANNELS 3 Zrotation Yrotation Xrotation
			JOINT Spine2
			{
				OFFSET 0.001457 0.052922 0.025425
				CHANNELS 3 Zrotation Yrotation Xrotation
				JOINT Neck
				{
					OFFSET -0.002778 0.213870 -0.042857
					CHANNELS 3 Zrotation Yrotation Xrotation
					JOINT Head
					{
						OFFSET 0.005152 0.064970 0.051349
						CHANNELS 3 Zrotation Yrotation Xrotation
						End Site
						{
							OFFSET 0.000000 0.000000 0.000000
						}
					}
				}
				JOINT LeftShoulder
				{
					OFFSET 0.078845 0.121749 -0.034090
					CHANNELS 3 Zrotation Yrotation Xrotation
					JOINT LeftArm
					{
						OFFSET 0.090977 0.030469 -0.008868
						CHANNELS 3 Zrotation Yrotation Xrotation
						JOINT LeftForeArm
						{
							OFFSET 0.259612 -0.012772 -0.027456
							CHANNELS 3 Zrotation Yrotation Xrotation
							JOINT LeftHand
							{
								OFFSET 0.249234 0.008986 -0.001171
								CHANNELS 3 Zrotation Yrotation Xrotation
								End Site
								{
									OFFSET 0.000000 0.000000 0.000000
								}
							}
						}
					}
				}
				JOINT RightShoulder
				{
					OFFSET -0.081759 0.118833 -0.038615
					CHANNELS 3 Zrotation Yrotation Xrotation
					JOINT RightArm
					{
						OFFSET -0.096012 0.032551 -0.009143
						CHANNELS 3 Zrotation Yrotation Xrotation
						JOINT RightForeArm
						{
							OFFSET -0.253742 -0.013329 -0.021401
							CHANNELS 3 Zrotation Yrotation Xrotation
							JOINT RightHand
							{
								OFFSET -0.255298 0.007772 -0.005559
								CHANNELS 3 Zrotation Yrotation Xrotation
								End Site
								{
									OFFSET 0.000000 0.000000 0.000000
								}
							}
						}
					}
				}
			}
		}
	}
}
MOTION
Frames: 6
Frame Time: 0.050000
0.041505 0.929304 0.021291 -4.199640 4.306569 -6.903362 -0.990804 1.014023 11.347870 0.790674 -0.253541 3.836588 3.244192 3.667274 -7.034636 0.000000 0.000000 0.000000 8.001074 4.280589 -26.197967 0.509946 0.575738 34.081049 -5.946035 -14.733713 1.718335 0.000000 0.000000 0.000000 4.879322 -1.151671 13.616866 1.017964 -0.304318 -3.600001 -4.129729 -1.281166 10.114194 6.425896 -1.031532 -28.607385 0.000000 0.000000 0.000000 -25.881951 -11.007937 3.626076 -40.501545 -18.682376 0.932502 -6.387015 -33.167469 3.067890 0.000000 0.000000 0.000000 23.487545 3.618122 0.704624 54.396985 5.213791 -3.761857 16.415473 29.107486 5.235137 0.000000 0.000000 0.000000 
0.040847 0.924346 0.020500 -3.833887 5.352469 -5.084213 -0.931372 1.191039 13.825435 0.859077 -0.188644 2.266553 3.911109 5.332715 -6.641773 0.000000 0.000000 0.000000 7.837170 4.267098 -27.005961 -2.025319 1.078420 18.259568 -4.950484 -12.545157 2.572670 0.000000 0.000000 0.000000 4.826462 -1.024162 11.854244 1.934068 -0.645079 -4.632463 -4.961931 -1.481376 9.990819 8.854105 -2.128904 -28.822821 0.000000 0.000000 0.000000 -25.550987 -12.166560 4.196027 -40.669735 -21.002908 1.755240 -3.189499 -37.044678 2.370749 0.000000 0.000000 0.000000 24.553543 2.591773 0.205223 52.805535 2.798250 -4.729662 16.604151 27.880731 5.050807 0.000000 0.000000 0.000000 
0.038749 0.919337 0.020953 -3.542572 6.703681 -4.518776 -0.369054 1.291453 17.043841 1.102978 -0.228640 2.500810 3.539405 3.542945 -8.112355 0.000000 0.000000 0.000000 8.784925 4.422055 -27.184636 -4.647290 1.411038 12.327107 -2.192093 -6.727061 5.050567 0.000000 0.000000 0.000000 5.369017 -0.946214 10.291076 2.251467 -0.872454 -3.058791 -5.926511 -2.608695 8.327511 8.516800 -2.046068 -27.982928 0.000000 0.000000 0.000000 -25.225485 -11.910820 4.049104 -41.703026 -23.889906 2.965275 0.077495 -39.766236 1.380629 0.000000 0.000000 0.000000 24.246901 2.578399 0.049683 54.372081 0.438569 -5.656345 14.957235 26.973149 4.431260 0.000000 0.000000 0.000000 
0.034390 0.915118 0.024442 -3.318329 7.117095 -3.850508 -0.126881 1.371061 19.320038 0.855329 -0.332351 5.239195 3.793581 3.930491 -8.488201 0.000000 0.000000 0.000000 8.057145 4.285735 -27.679517 -3.046648 1.071412 12.906790 -2.133805 -6.755900 5.826139 0.000000 0.000000 0.000000 5.190204 -0.740627 8.223063 2.185934 -0.868800 -2.611278 -6.428219 -2.990736 9.091801 9.350620 -2.270433 -29.342517 0.000000 0.000000 0.000000 -25.168806 -11.210058 3.704126 -41.897689 -26.059872 3.671407 2.148817 -42.599543 0.726560 0.000000 0.000000 0.000000 23.888920 2.323420 -0.086837 55.329199 0.353964 -5.838162 13.238982 24.632398 3.647753 0.000000 0.000000 0.000000 
0.027264 0.914094 0.031969 -3.982832 9.404470 -4.448534 0.995909 1.106779 21.779257 2.065267 -0.857683 10.216939 2.005549 1.134738 -5.513396 0.000000 0.000000 0.000000 8.521811 4.089326 -26.310298 -1.761649 0.820262 16.790283 -4.140465 -10.935591 6.195582 0.000000 0.000000 0.000000 5.137785 -0.697844 7.761987 2.738708 -1.123297 -2.413926 -5.509931 -3.411127 9.411820 8.604181 -1.862429 -29.306438 0.000000 0.000000 0.000000 -26.761351 -12.073734 4.002781 -40.944129 -26.368105 3.715397 2.710758 -44.463135 0.461398 0.000000 0.000000 0.000000 24.321463 0.428075 -1.045057 54.240763 -1.311605 -6.540795 14.387069 24.080582 3.822719 0.000000 0.000000 0.000000 
0.018049 0.918211 0.040894 -5.353925 9.259737 -3.673875 3.810640 0.463520 18.624986 0.865158 -1.363816 20.109206 0.382643 2.101407 2.510614 0.000000 0.000000 0.000000 10.454125 4.487420 -26.227105 -0.872736 0.622094 21.408542 -2.543809 -7.694391 6.880879 0.000000 0.000000 0.000000 6.256796 -0.537476 5.328378 3.465088 -1.644880 -0.452590 -5.683132 -3.258705 8.281994 8.664934 -1.689315 -30.202914 0.000000 0.000000 0.000000 -28.268608 -9.839071 2.462079 -41.491883 -25.689721 3.682715 1.390186 -44.723877 0.977757 0.000000 0.000000 0.000000 22.567697 1.379603 -0.385725 55.872850 -1.155400 -6.499524 12.470016 24.089882 3.426753 0.000000 0.000000 0.000000 
